<mxfile host="Electron" agent="Mozilla/5.0 (Windows NT 10.0; Win64; x64) AppleWebKit/537.36 (KHTML, like Gecko) draw.io/24.7.17 Chrome/128.0.6613.36 Electron/32.0.1 Safari/537.36" version="24.7.17">
  <diagram name="Page-1" id="4AKSp020mOWLQE9U08Z7">
    <mxGraphModel dx="979" dy="567" grid="1" gridSize="10" guides="1" tooltips="1" connect="1" arrows="1" fold="1" page="1" pageScale="1" pageWidth="827" pageHeight="1169" math="0" shadow="0">
      <root>
        <mxCell id="0" />
        <mxCell id="1" parent="0" />
        <mxCell id="KpwMg04kItnlwbt6qVom-24" style="edgeStyle=orthogonalEdgeStyle;rounded=0;orthogonalLoop=1;jettySize=auto;html=1;" edge="1" parent="1" source="KpwMg04kItnlwbt6qVom-2" target="KpwMg04kItnlwbt6qVom-23">
          <mxGeometry relative="1" as="geometry" />
        </mxCell>
        <mxCell id="KpwMg04kItnlwbt6qVom-2" value="Pipeline" style="rounded=0;whiteSpace=wrap;html=1;fillColor=#a20025;fontColor=#ffffff;strokeColor=#6F0000;" vertex="1" parent="1">
          <mxGeometry x="240" y="400" width="120" height="40" as="geometry" />
        </mxCell>
        <mxCell id="KpwMg04kItnlwbt6qVom-64" style="edgeStyle=orthogonalEdgeStyle;rounded=0;orthogonalLoop=1;jettySize=auto;html=1;entryX=0;entryY=0.5;entryDx=0;entryDy=0;" edge="1" parent="1" source="KpwMg04kItnlwbt6qVom-3" target="KpwMg04kItnlwbt6qVom-6">
          <mxGeometry relative="1" as="geometry" />
        </mxCell>
        <mxCell id="KpwMg04kItnlwbt6qVom-65" style="edgeStyle=orthogonalEdgeStyle;rounded=0;orthogonalLoop=1;jettySize=auto;html=1;entryX=0;entryY=0.5;entryDx=0;entryDy=0;" edge="1" parent="1" source="KpwMg04kItnlwbt6qVom-3" target="KpwMg04kItnlwbt6qVom-7">
          <mxGeometry relative="1" as="geometry" />
        </mxCell>
        <mxCell id="KpwMg04kItnlwbt6qVom-3" value="API_Client" style="rounded=0;whiteSpace=wrap;html=1;fillColor=#fa6800;fontColor=#000000;strokeColor=#C73500;" vertex="1" parent="1">
          <mxGeometry x="200" y="240" width="120" height="40" as="geometry" />
        </mxCell>
        <mxCell id="KpwMg04kItnlwbt6qVom-12" style="edgeStyle=orthogonalEdgeStyle;rounded=0;orthogonalLoop=1;jettySize=auto;html=1;entryX=0.5;entryY=0;entryDx=0;entryDy=0;" edge="1" parent="1" source="KpwMg04kItnlwbt6qVom-4" target="KpwMg04kItnlwbt6qVom-3">
          <mxGeometry relative="1" as="geometry" />
        </mxCell>
        <mxCell id="KpwMg04kItnlwbt6qVom-4" value="Search_Criteria" style="rounded=0;whiteSpace=wrap;html=1;fillColor=#d80073;fontColor=#ffffff;strokeColor=#A50040;" vertex="1" parent="1">
          <mxGeometry x="200" y="160" width="120" height="40" as="geometry" />
        </mxCell>
        <mxCell id="KpwMg04kItnlwbt6qVom-63" style="edgeStyle=orthogonalEdgeStyle;rounded=0;orthogonalLoop=1;jettySize=auto;html=1;entryX=0;entryY=0.5;entryDx=0;entryDy=0;" edge="1" parent="1" source="KpwMg04kItnlwbt6qVom-5" target="KpwMg04kItnlwbt6qVom-3">
          <mxGeometry relative="1" as="geometry" />
        </mxCell>
        <mxCell id="KpwMg04kItnlwbt6qVom-5" value="Scheduler" style="rounded=0;whiteSpace=wrap;html=1;fillColor=#6d8764;fontColor=#ffffff;strokeColor=#3A5431;" vertex="1" parent="1">
          <mxGeometry x="40" y="240" width="120" height="40" as="geometry" />
        </mxCell>
        <mxCell id="KpwMg04kItnlwbt6qVom-15" style="edgeStyle=orthogonalEdgeStyle;rounded=0;orthogonalLoop=1;jettySize=auto;html=1;entryX=0;entryY=0.5;entryDx=0;entryDy=0;" edge="1" parent="1" source="KpwMg04kItnlwbt6qVom-6" target="KpwMg04kItnlwbt6qVom-14">
          <mxGeometry relative="1" as="geometry" />
        </mxCell>
        <mxCell id="KpwMg04kItnlwbt6qVom-6" value="Update" style="rounded=0;whiteSpace=wrap;html=1;fillColor=#6a00ff;fontColor=#ffffff;strokeColor=#3700CC;" vertex="1" parent="1">
          <mxGeometry x="360" y="200" width="120" height="40" as="geometry" />
        </mxCell>
        <mxCell id="KpwMg04kItnlwbt6qVom-21" style="edgeStyle=orthogonalEdgeStyle;rounded=0;orthogonalLoop=1;jettySize=auto;html=1;entryX=0;entryY=0.5;entryDx=0;entryDy=0;" edge="1" parent="1" source="KpwMg04kItnlwbt6qVom-7" target="KpwMg04kItnlwbt6qVom-19">
          <mxGeometry relative="1" as="geometry" />
        </mxCell>
        <mxCell id="KpwMg04kItnlwbt6qVom-7" value="Transform" style="rounded=0;whiteSpace=wrap;html=1;fillColor=#1ba1e2;fontColor=#ffffff;strokeColor=#006EAF;" vertex="1" parent="1">
          <mxGeometry x="360" y="280" width="120" height="40" as="geometry" />
        </mxCell>
        <mxCell id="KpwMg04kItnlwbt6qVom-17" style="edgeStyle=orthogonalEdgeStyle;rounded=0;orthogonalLoop=1;jettySize=auto;html=1;" edge="1" parent="1" source="KpwMg04kItnlwbt6qVom-14" target="KpwMg04kItnlwbt6qVom-16">
          <mxGeometry relative="1" as="geometry" />
        </mxCell>
        <mxCell id="KpwMg04kItnlwbt6qVom-14" value="API_Client (GET)" style="rounded=0;whiteSpace=wrap;html=1;fillColor=#0050ef;fontColor=#ffffff;strokeColor=#001DBC;" vertex="1" parent="1">
          <mxGeometry x="520" y="200" width="120" height="40" as="geometry" />
        </mxCell>
        <mxCell id="KpwMg04kItnlwbt6qVom-16" value="Kafka_Producer&lt;div&gt;(Update)&lt;/div&gt;" style="rounded=0;whiteSpace=wrap;html=1;fillColor=#60a917;fontColor=#ffffff;strokeColor=#2D7600;" vertex="1" parent="1">
          <mxGeometry x="680" y="200" width="120" height="40" as="geometry" />
        </mxCell>
        <mxCell id="KpwMg04kItnlwbt6qVom-18" style="edgeStyle=orthogonalEdgeStyle;rounded=0;orthogonalLoop=1;jettySize=auto;html=1;" edge="1" parent="1" source="KpwMg04kItnlwbt6qVom-19" target="KpwMg04kItnlwbt6qVom-20">
          <mxGeometry relative="1" as="geometry" />
        </mxCell>
        <mxCell id="KpwMg04kItnlwbt6qVom-19" value="API_Client (GET)" style="rounded=0;whiteSpace=wrap;html=1;fillColor=#0050ef;fontColor=#ffffff;strokeColor=#001DBC;" vertex="1" parent="1">
          <mxGeometry x="520" y="280" width="120" height="40" as="geometry" />
        </mxCell>
        <mxCell id="KpwMg04kItnlwbt6qVom-20" value="Kafka_Producer&lt;div&gt;(Transform)&lt;/div&gt;" style="rounded=0;whiteSpace=wrap;html=1;fillColor=#60a917;fontColor=#ffffff;strokeColor=#2D7600;" vertex="1" parent="1">
          <mxGeometry x="680" y="280" width="120" height="40" as="geometry" />
        </mxCell>
        <mxCell id="KpwMg04kItnlwbt6qVom-23" value="Raw" style="shape=datastore;whiteSpace=wrap;html=1;fillColor=#a0522d;fontColor=#ffffff;strokeColor=#6D1F00;" vertex="1" parent="1">
          <mxGeometry x="400" y="390" width="60" height="60" as="geometry" />
        </mxCell>
        <mxCell id="KpwMg04kItnlwbt6qVom-41" style="edgeStyle=orthogonalEdgeStyle;rounded=0;orthogonalLoop=1;jettySize=auto;html=1;entryX=0;entryY=0.5;entryDx=0;entryDy=0;" edge="1" parent="1" source="KpwMg04kItnlwbt6qVom-25" target="KpwMg04kItnlwbt6qVom-2">
          <mxGeometry relative="1" as="geometry" />
        </mxCell>
        <mxCell id="KpwMg04kItnlwbt6qVom-25" value="Kafka_Consumer&lt;div&gt;(Update)&lt;/div&gt;" style="rounded=0;whiteSpace=wrap;html=1;fillColor=#008a00;fontColor=#ffffff;strokeColor=#005700;" vertex="1" parent="1">
          <mxGeometry x="80" y="400" width="120" height="40" as="geometry" />
        </mxCell>
        <mxCell id="KpwMg04kItnlwbt6qVom-37" style="edgeStyle=orthogonalEdgeStyle;rounded=0;orthogonalLoop=1;jettySize=auto;html=1;entryX=0;entryY=0.3;entryDx=0;entryDy=0;exitX=1;exitY=0.25;exitDx=0;exitDy=0;" edge="1" parent="1" source="KpwMg04kItnlwbt6qVom-33" target="KpwMg04kItnlwbt6qVom-34">
          <mxGeometry relative="1" as="geometry" />
        </mxCell>
        <mxCell id="KpwMg04kItnlwbt6qVom-40" style="edgeStyle=orthogonalEdgeStyle;rounded=0;orthogonalLoop=1;jettySize=auto;html=1;entryX=0;entryY=0.5;entryDx=0;entryDy=0;exitX=0.75;exitY=1;exitDx=0;exitDy=0;" edge="1" parent="1" source="KpwMg04kItnlwbt6qVom-33" target="KpwMg04kItnlwbt6qVom-39">
          <mxGeometry relative="1" as="geometry" />
        </mxCell>
        <mxCell id="KpwMg04kItnlwbt6qVom-62" style="edgeStyle=orthogonalEdgeStyle;rounded=0;orthogonalLoop=1;jettySize=auto;html=1;entryX=0;entryY=0.5;entryDx=0;entryDy=0;exitX=0.25;exitY=1;exitDx=0;exitDy=0;" edge="1" parent="1" source="KpwMg04kItnlwbt6qVom-33" target="KpwMg04kItnlwbt6qVom-61">
          <mxGeometry relative="1" as="geometry" />
        </mxCell>
        <mxCell id="KpwMg04kItnlwbt6qVom-33" value="Pipeline" style="rounded=0;whiteSpace=wrap;html=1;fillColor=#a20025;fontColor=#ffffff;strokeColor=#6F0000;" vertex="1" parent="1">
          <mxGeometry x="240" y="520" width="120" height="40" as="geometry" />
        </mxCell>
        <mxCell id="KpwMg04kItnlwbt6qVom-38" style="edgeStyle=orthogonalEdgeStyle;rounded=0;orthogonalLoop=1;jettySize=auto;html=1;entryX=1;entryY=0.75;entryDx=0;entryDy=0;exitX=0;exitY=0.7;exitDx=0;exitDy=0;" edge="1" parent="1" source="KpwMg04kItnlwbt6qVom-34" target="KpwMg04kItnlwbt6qVom-33">
          <mxGeometry relative="1" as="geometry" />
        </mxCell>
        <mxCell id="KpwMg04kItnlwbt6qVom-34" value="Raw" style="shape=datastore;whiteSpace=wrap;html=1;fillColor=#a0522d;fontColor=#ffffff;strokeColor=#6D1F00;" vertex="1" parent="1">
          <mxGeometry x="400" y="510" width="60" height="60" as="geometry" />
        </mxCell>
        <mxCell id="KpwMg04kItnlwbt6qVom-35" style="edgeStyle=orthogonalEdgeStyle;rounded=0;orthogonalLoop=1;jettySize=auto;html=1;entryX=0;entryY=0.5;entryDx=0;entryDy=0;" edge="1" parent="1" source="KpwMg04kItnlwbt6qVom-36" target="KpwMg04kItnlwbt6qVom-33">
          <mxGeometry relative="1" as="geometry" />
        </mxCell>
        <mxCell id="KpwMg04kItnlwbt6qVom-36" value="Kafka_Consumer&lt;div&gt;(Transform)&lt;/div&gt;" style="rounded=0;whiteSpace=wrap;html=1;fillColor=#008a00;fontColor=#ffffff;strokeColor=#005700;" vertex="1" parent="1">
          <mxGeometry x="80" y="520" width="120" height="40" as="geometry" />
        </mxCell>
        <mxCell id="KpwMg04kItnlwbt6qVom-39" value="Cleaned" style="shape=datastore;whiteSpace=wrap;html=1;fillColor=#647687;fontColor=#ffffff;strokeColor=#314354;" vertex="1" parent="1">
          <mxGeometry x="400" y="610" width="60" height="60" as="geometry" />
        </mxCell>
        <mxCell id="KpwMg04kItnlwbt6qVom-61" value="Tables" style="shape=datastore;whiteSpace=wrap;html=1;fillColor=#e3c800;fontColor=#000000;strokeColor=#B09500;" vertex="1" parent="1">
          <mxGeometry x="400" y="690" width="60" height="60" as="geometry" />
        </mxCell>
      </root>
    </mxGraphModel>
  </diagram>
</mxfile>
